<?xml version="1.0" encoding="utf-8"?>
<!-- Generator: Adobe Illustrator 27.5.0, SVG Export Plug-In . SVG Version: 6.00 Build 0)  -->
<svg version="1.1" id="Layer_1" xmlns="http://www.w3.org/2000/svg" xmlns:xlink="http://www.w3.org/1999/xlink" x="0px" y="0px"
	 viewBox="0 0 4000 4000" style="enable-background:new 0 0 4000 4000;" xml:space="preserve">
<rect style="fill:#FFFFFF;" width="4000" height="4000"/>
<g>
	<path style="fill-rule:evenodd;clip-rule:evenodd;" d="M985.667,2112.869V1853.23c415.358,0,891.237,0,1306.595,0
		c25.874,0,51.011-3.303,75.015-9.51c104.059-26.903,186.786-108.352,215.517-211.683c0.659-2.371,1.29-4.753,1.892-7.146
		l42.231-157.609l78.744-293.875l39.874-148.811h268.799l-179.124,668.504l-1.643,6.132
		c-33.51,122.219-107.571,228.121-206.649,302.167c-36.574,27.334-76.557,50.327-119.167,68.198
		c-44.278,18.57-91.395,31.61-140.473,38.24c-24.55,3.318-49.591,5.031-75.013,5.031
		C1876.904,2112.869,1401.026,2112.869,985.667,2112.869"/>
	<path style="fill-rule:evenodd;clip-rule:evenodd;" d="M2538.465,2715.764c-44.024,68.628-102.56,127.164-171.188,171.188
		c-87.209,55.943-190.716,88.451-301.446,88.452h-99.459h-259.64c0-267.338,0-534.676,0-802.014c86.547,0,173.094,0,259.64,0
		v542.374h99.457c165.796,0,301.447-135.651,301.447-301.447v-0.001c0-98.184-47.574-185.798-120.808-240.926
		c15.265,0,30.53,0,45.794,0c25.068,0,50.129-1.509,75.013-4.537c2.704-0.329,5.405-0.675,8.104-1.039
		c53.549-7.236,105.946-21.507,155.776-42.406c4.004-1.681,7.991-3.402,11.959-5.165c53.091,85.646,83.802,186.448,83.802,294.074
		C2626.917,2525.048,2594.409,2628.554,2538.465,2715.764"/>
	<path style="fill-rule:evenodd;clip-rule:evenodd;" d="M1706.734,1024.596h259.639v768.114c-86.547,0-173.094,0-259.64,0
		L1706.734,1024.596z"/>
	<path style="fill-rule:evenodd;clip-rule:evenodd;" d="M1305.828,1024.596v768.114c-86.547,0-173.094,0-259.64,0l0.001-768.114
		H1305.828z"/>
	<path style="fill-rule:evenodd;clip-rule:evenodd;" d="M1046.188,2173.39c86.547,0,173.093,0,259.64,0v802.013h-259.64V2173.39z"/>
	<path style="fill-rule:evenodd;clip-rule:evenodd;" d="M2847.962,1284.236h-934.221c0-86.547,0-173.094,0-259.64l934.221,0.001
		V1284.236z"/>
</g>
</svg>
